<?xml version="1.0" standalone="no"?><!DOCTYPE svg PUBLIC "-//W3C//DTD SVG 1.1//EN" "http://www.w3.org/Graphics/SVG/1.1/DTD/svg11.dtd"><svg t="1634122375903" class="icon" viewBox="0 0 1024 1024" version="1.1" xmlns="http://www.w3.org/2000/svg" p-id="5047" xmlns:xlink="http://www.w3.org/1999/xlink" width="18" height="18"><defs><style type="text/css"></style></defs><path d="M932.11954 734.23711L545.73483 937.840415V423.54975l386.38471-164.113495z m-845.799925 0a9.128813 9.128813 0 0 1-2.564274-5.231118V259.128542l391.615828 164.113495v514.598378zM498.757342 71.21859a36.20754 36.20754 0 0 1 23.488744 0l357.664849 135.701346-368.127084 156.625817-370.588786-156.625817z m456.850942 91.390702L545.73483 5.880905a116.623152 116.623152 0 0 0-73.133076 0l-410.283738 156.625816A74.056215 74.056215 0 0 0 15.853383 232.972953v496.033039a74.466498 74.466498 0 0 0 36.515252 65.235115h2.564274l420.540831 219.296658a85.031305 85.031305 0 0 0 36.515253 10.257093 59.901426 59.901426 0 0 0 36.515252-10.257093l420.540832-219.296658h2.564273a74.466498 74.466498 0 0 0 36.515253-65.235115V232.972953c-5.231118-31.284135-23.488744-60.003997-52.208606-70.466232z m0 0" p-id="5048" fill="#666666"></path></svg>