<?xml version="1.0" standalone="no"?><!DOCTYPE svg PUBLIC "-//W3C//DTD SVG 1.1//EN" "http://www.w3.org/Graphics/SVG/1.1/DTD/svg11.dtd"><svg t="1661997767343" class="icon" viewBox="0 0 1040 1024" version="1.1" xmlns="http://www.w3.org/2000/svg" p-id="6210" xmlns:xlink="http://www.w3.org/1999/xlink" width="203.125" height="200"><path d="M118.358162 451.182728c0.998984-88.744824 37.874407-168.683027 96.685522-226.186046l-0.075743-0.076766c3.886418-4.557867 6.238535-10.464772 6.238535-16.92337 0-14.41465-11.685866-26.100516-26.100516-26.100516-6.247747 0-11.981672 2.197561-16.475055 5.859822l-0.08086-0.082908c-0.515869 0.50461-1.024573 1.014338-1.537372 1.522018-0.196522 0.189357-0.390996 0.38076-0.5824 0.576258C109.321243 256.435009 67.332166 348.460309 66.161225 450.513326l0 0c-0.687825 61.055759-18.684899 121.908856-53.8643 174.600168-0.188333 0.270217-0.370525 0.544528-0.548623 0.822934-0.294782 0.439103-0.580353 0.881276-0.878206 1.319355l0.06346 0.037871c-2.0993 3.760521-3.299924 8.090136-3.299924 12.702251 0 14.415673 11.685866 26.100516 26.100516 26.100516 9.065579 0 17.049266-4.624397 21.728935-11.639806l0.018424 0.011259c41.056623-61.318812 62.060885-132.183247 62.877678-203.284123L118.358162 451.183751z" p-id="6211"></path><path d="M332.994474 115.684651c3.782016 0 7.372628-0.810651 10.61728-2.257951l0.008188 0.019447c0.198569-0.099284 0.399184-0.194474 0.597753-0.292735 0.084955-0.040942 0.167862-0.082908 0.251793-0.12385 57.351533-28.451609 121.97334-44.454808 190.335197-44.454808 181.229699 0 336.203303 112.412363 398.999096 271.31435l0.072672-0.032754c4.232378 8.701195 13.156707 14.699196 23.482276 14.699196 14.41465 0 26.100516-11.685866 26.100516-26.100516 0-3.682732-0.766639-7.186342-2.143313-10.36344C910.21301 141.236544 737.093919 16.374747 534.804686 16.374747c-76.428451 0-148.692079 17.827164-212.864548 49.542873l0.008188 0.018424c-8.892599 4.160729-15.054368 13.183319-15.054368 23.648091C306.893959 103.998785 318.578801 115.684651 332.994474 115.684651z" p-id="6212"></path><path d="M792.402447 715.037448c-10.38084 0-19.344065 6.061461-23.54983 14.836352l-0.039918-0.018424c-0.146368 0.36336-0.297853 0.72365-0.444221 1.088033-0.021495 0.04913-0.039918 0.099284-0.060389 0.148415-31.247947 77.552309-78.594283 146.886538-137.915125 203.851169l0.003071 0.003071c-5.149478 4.767694-8.377754 11.582488-8.377754 19.154708 0 14.41465 11.685866 26.100516 26.100516 26.100516 7.303027 0 13.900828-3.003095 18.637815-7.835272 64.315765-61.820351 115.711263-136.979601 149.70437-221.049874l-0.015353-0.007165c1.32345-3.125921 2.056311-6.561977 2.056311-10.171013C818.502963 726.723314 806.817096 715.037448 792.402447 715.037448z" p-id="6213"></path><path d="M1020.694958 465.678238l-0.034801 0.004094c-1.429899-13.063564-12.496518-23.229459-25.940842-23.229459-14.41465 0-26.100516 11.685866-26.100516 26.100516 0 1.210859 0.089049 2.400224 0.248723 3.566047 1.635632 17.786222 2.481084 35.801719 2.481084 54.014762 0 131.866971-43.834537 253.492303-117.715373 351.116421-3.813746 4.537396-6.113662 10.388005-6.113662 16.779049 0 14.41465 11.685866 26.100516 26.100516 26.100516 8.368542 0 15.809748-3.942713 20.586654-10.066611l0.033777 0.026612c81.131662-106.604742 129.308096-239.651865 129.308096-383.955987C1023.549638 505.743041 1022.575219 485.57809 1020.694958 465.678238z" p-id="6214"></path><path d="M353.096989 296.232666c17.590724-17.36452 36.872352-31.963408 57.297285-43.829419 8.502627-4.303003 14.335836-13.115765 14.335836-23.297013 0-14.41465-11.685866-26.100516-26.100516-26.100516-4.849578 0-9.387997 1.327544-13.278509 3.631554l-0.035824-0.048107c-24.574403 14.151597-47.761897 31.636896-68.888985 52.49172-66.381288 65.524577-99.918916 151.750446-100.480844 238.192283-0.473903 73.081444-28.830323 145.982744-84.951549 201.380321-8.492391 8.382872-17.386014 16.105554-26.606149 23.202847l0.026612 0.034801c-6.032802 4.781-9.906937 12.166935-9.906937 20.461781 0 14.41465 11.685866 26.100516 26.100516 26.100516 6.520011 0 12.476047-2.39613 17.05029-6.348055 10.38084-8.082971 20.41265-16.83125 30.005358-26.300108 66.381288-65.524577 99.918916-151.752493 100.479821-238.192283C268.619343 424.529495 296.974739 351.629219 353.096989 296.232666z" p-id="6215"></path><path d="M857.416273 680.221407c0 0 2.461637-4.842413 2.693983-5.506697 20.047243-51.140634 29.21006-107.466571 24.821079-165.907161C869.998769 310.017832 703.750766 174.159018 507.483075 174.78543c-0.386902-0.0174-0.774827-0.029683-1.166847-0.029683-0.445244 0-2.849562 0.157627-2.849562 0.157627-13.0738 1.420687-23.250954 12.4914-23.250954 25.942889 0 14.287729 11.48218 25.887617 25.721802 26.091304l0.002047 0.042989c169.862157-1.400216 314.027076 113.852497 326.937108 285.727976 3.756427 50.001423-4.004126 98.207541-21.022686 142.026724 0 0-2.481084 7.303027-2.481084 11.352189 0 14.41465 11.685866 26.100516 26.100516 26.100516C844.681268 692.196937 852.770381 687.424125 857.416273 680.221407z" p-id="6216"></path><path d="M346.565719 718.297453c0-14.41465-11.685866-26.100516-26.100516-26.100516-8.424837 0-15.912103 3.994914-20.683891 10.19046l-0.03173-0.024565c-32.314486 41.915381-70.080397 79.176682-112.11758 110.818696l0.002047 0.004094c-5.682748 4.11774-9.702227 10.497525-10.608068 18.015497-1.724681 14.310247 8.480109 27.311375 22.79138 29.035033 7.249802 0.874111 14.159786-1.319355 19.441302-5.549686 45.31459-34.142545 86.065171-74.285139 121.012227-119.399112C344.191084 730.720275 346.565719 724.787781 346.565719 718.297453z" p-id="6217"></path><path d="M536.050346 697.462077c0 0 36.966519-75.207357 36.966519-185.236896 0-11.761609-0.430914-23.421886-1.25999-34.97162l-0.01433 0c-1.107481-13.395194-12.322514-23.924449-26.003279-23.924449s-24.895798 10.529255-26.003279 23.924449c0 0 1.080868 23.196705 1.080868 34.97162 0 154.98998-82.220719 290.773052-205.420271 366.123706l0.374619 0.555787c-8.317364 4.364416-13.993971 13.077894-13.993971 23.121986 0 14.41465 11.685866 26.100516 26.100516 26.100516 7.054304 0 13.450466-2.803502 18.146512-7.351134C430.414905 868.182991 497.330487 790.183391 536.050346 697.462077z" p-id="6218"></path><path d="M716.484747 515.807605c2.047099-81.99042-38.894886-153.531422-112.352997-179.079221-49.564368-17.238623-130.310152-19.239663-183.556227 40.126216s-46.400576 125.555763-58.001487 173.322778C353.039671 589.441766 332.157211 647.882356 332.157211 647.882356c-6.840382 19.92237 2.765631 31.731062 10.559962 34.933749 11.429979 4.696046 24.461813 1.444229 32.241814-7.334757 10.129047-11.429979 29.229507-69.184791 37.405622-105.686618 8.654112-38.633881 12.066627-104.823766 43.010579-148.926472 31.903019-45.469146 98.77254-40.771053 119.243533-35.312463s80.452025 27.72796 84.546224 126.669385-19.789309 172.46709-68.681204 253.06753c-34.855959 57.461053-98.499252 121.72257-129.441158 146.781112-10.120859 8.196586-18.631674 27.733077-8.396178 43.428188 12.852713 19.708448 41.460925 7.974475 41.460925 7.974475s83.200256-59.258406 150.045212-173.357579C703.519443 688.78647 714.133653 609.981336 716.484747 515.807605z" p-id="6219"></path></svg>